C:\GBW_MyPrograms\PredSimResults\gait1018\gait1018_v26.mot
version=1
nRows=8
nColumns=29
inDegrees=yes
endheader
                time	         pelvis_tilt	           pelvis_tx	           pelvis_ty	       hip_flexion_l	       hip_flexion_r	        knee_angle_l	        knee_angle_r	       ankle_angle_l	       ankle_angle_r	    lumbar_extension	hamstrings_r/activation	bifemsh_r/activation	glut_max_r/activation	iliopsoas_r/activation	rect_fem_r/activation	  vasti_r/activation	gastroc_r/activation	 soleus_r/activation	tib_ant_r/activation	hamstrings_l/activation	bifemsh_l/activation	glut_max_l/activation	iliopsoas_l/activation	rect_fem_l/activation	  vasti_l/activation	gastroc_l/activation	 soleus_l/activation	tib_ant_l/activation	
          1.52353802	         -8.25664612	          1.89933947	          0.89456031	         34.52344634	         -6.13265786	        -17.73702137	        -15.08625770	         11.23366574	          5.37848904	          0.72940299	          0.05000001	          0.05000043	          0.05000005	          0.55476531	          0.14816312	          0.12212250	          0.30296365	          0.32219916	          0.05000000	          0.23283431	          0.05000003	          0.12402020	          0.05508160	          0.09346459	          0.05022583	          0.05000001	          0.05165968	          0.21498926	
          1.53369495	         -8.27916012	          1.91493331	          0.89398763	         33.89198249	         -6.50893236	        -16.46409320	        -16.01236662	         11.21629062	          4.06007626	          1.10328561	          0.05000002	          0.05000021	          0.05000007	          0.58782497	          0.12671294	          0.10444234	          0.27141328	          0.28743666	          0.05000000	          0.25653235	          0.05000004	          0.12318130	          0.05000001	          0.07993334	          0.06233318	          0.05000002	          0.05615886	          0.22084862	
          1.54385187	         -8.29714153	          1.93079009	          0.89328805	         33.19934463	         -6.61753163	        -15.62885835	        -17.44451923	         11.10377665	          2.66471563	          1.50589273	          0.05000001	          0.05000015	          0.06015859	          0.60163962	          0.10836818	          0.08932178	          0.23211961	          0.24582322	          0.05000000	          0.25413859	          0.05000007	          0.12722328	          0.05000002	          0.06836105	          0.08619812	          0.05208014	          0.05403925	          0.23016770	
          1.55400879	         -8.30972763	          1.94684641	          0.89239859	         32.43523551	         -6.40767216	        -15.27177772	        -19.45764983	         10.93947741	          1.14470943	          1.92879806	          0.05000000	          0.05000016	          0.07422964	          0.56800792	          0.09267926	          0.07639028	          0.19851465	          0.21023433	          0.05000000	          0.23651037	          0.05000004	          0.13935502	          0.05000001	          0.05846414	          0.12803766	          0.05000002	          0.05000003	          0.26871798	
          1.56416571	         -8.31673677	          1.96299482	          0.89132363	         31.61360409	         -5.86557582	        -15.52084949	        -22.03467858	         10.69605316	         -0.61988351	          2.35844959	          0.05000021	          0.05000016	          0.07786387	          0.48577498	          0.07926169	          0.06533094	          0.16977483	          0.17979780	          0.05000000	          0.20427835	          0.06836095	          0.17914076	          0.05000000	          0.05000004	          0.17667020	          0.05846401	          0.05644296	          0.24288334	
          1.57432263	         -8.32156816	          1.97896993	          0.89024785	         30.74870138	         -4.99130738	        -15.85812310	        -25.10839945	         10.53366405	         -2.66501903	          2.76477442	          0.05000006	          0.05000003	          0.07993329	          0.42278998	          0.06778669	          0.05846470	          0.14519580	          0.15376770	          0.23960203	          0.17470409	          0.05846413	          0.24331468	          0.05000000	          0.05000000	          0.24642204	          0.05000000	          0.05000000	          0.31294390	
          1.58447955	         -8.32823423	          1.99437004	          0.88933371	         30.00305242	         -3.84681358	        -16.31469080	        -28.51011042	         10.24359540	         -4.25513701	          3.10085179	          0.05000002	          0.05000006	          0.06836100	          0.37041968	          0.15931411	          0.05000051	          0.12417518	          0.13150608	          0.20809410	          0.14941143	          0.05000005	          0.27213637	          0.05000000	          0.05000001	          0.32197651	          0.05000001	          0.05000003	          0.32283840	
          1.59463647	         -8.33747473	          2.00904899	          0.88877620	         29.43214649	         -2.55091185	        -17.00104226	        -31.87544980	         10.04274285	         -4.54718871	          3.34940418	          0.05000001	          0.07942083	          0.05846409	          0.31679246	          0.22967152	          0.05000000	          0.10619780	          0.11246738	          0.25314770	          0.12778049	          0.05000005	          0.26079553	          0.05000000	          0.05000005	          0.38569370	          0.05000001	          0.05000002	          0.34259955	
